<svg width="121" height="35" viewBox="0 0 121 35" fill="none" xmlns="http://www.w3.org/2000/svg">
<rect y="13.7467" width="6.87336" height="6.87337" fill="#039855"/>
<rect x="20.6201" y="20.6201" width="6.87337" height="6.87336" transform="rotate(180 20.6201 20.6201)" fill="#027A48"/>
<path d="M6.87305 13.7468L13.7464 6.87341V13.7468L6.87305 20.6201V13.7468Z" fill="#A6F4C5"/>
<path d="M13.7471 20.62L6.87371 27.4934L6.87371 20.62L13.7471 13.7467L13.7471 20.62Z" fill="#6CE9A6"/>
<path d="M0 13.7467L13.7467 0V6.87337L6.87336 13.7467H0Z" fill="#32D583"/>
<path d="M20.6201 20.6201L6.87338 34.3668L6.87338 27.4935L13.7468 20.6201L20.6201 20.6201Z" fill="#12B76A"/>
<path d="M35.5897 24.5437C34.5071 24.5437 33.458 24.39 32.4423 24.0826C31.4399 23.7752 30.6447 23.3676 30.0566 22.8597L30.9588 20.835C31.5335 21.2894 32.2351 21.6636 33.0637 21.9576C33.9057 22.2383 34.7477 22.3786 35.5897 22.3786C36.6322 22.3786 37.4073 22.2115 37.9152 21.8774C38.4364 21.5433 38.697 21.1023 38.697 20.5543C38.697 20.1534 38.55 19.8259 38.256 19.572C37.9753 19.3047 37.6145 19.0975 37.1734 18.9505C36.7324 18.8035 36.131 18.6364 35.3692 18.4493C34.3 18.1954 33.4313 17.9415 32.763 17.6875C32.1082 17.4336 31.5401 17.0393 31.059 16.5047C30.5912 15.9568 30.3574 15.2217 30.3574 14.2995C30.3574 13.5244 30.5645 12.8227 30.9788 12.1946C31.4065 11.553 32.0413 11.0452 32.8833 10.671C33.7387 10.2967 34.7811 10.1096 36.0107 10.1096C36.8661 10.1096 37.708 10.2166 38.5367 10.4304C39.3653 10.6442 40.0803 10.9516 40.6817 11.3526L39.8598 13.3774C39.245 13.0165 38.6035 12.7425 37.9352 12.5554C37.267 12.3683 36.6188 12.2747 35.9907 12.2747C34.9616 12.2747 34.1931 12.4485 33.6852 12.796C33.1907 13.1435 32.9435 13.6046 32.9435 14.1792C32.9435 14.5802 33.0838 14.9076 33.3645 15.1616C33.6585 15.4155 34.026 15.616 34.4671 15.763C34.9081 15.91 35.5095 16.0771 36.2713 16.2642C37.3138 16.5047 38.1691 16.7587 38.8374 17.026C39.5056 17.2799 40.0736 17.6742 40.5414 18.2088C41.0225 18.7434 41.2631 19.4651 41.2631 20.3739C41.2631 21.149 41.0493 21.8507 40.6216 22.4788C40.2073 23.107 39.5724 23.6082 38.7171 23.9824C37.8617 24.3566 36.8193 24.5437 35.5897 24.5437Z" fill="#101828"/>
<path d="M43.6068 13.638H46.1127V24.3432H43.6068V13.638ZM44.8697 11.8738C44.4153 11.8738 44.0344 11.7335 43.727 11.4528C43.4197 11.1588 43.266 10.7979 43.266 10.3702C43.266 9.94257 43.4197 9.5884 43.727 9.30774C44.0344 9.01371 44.4153 8.8667 44.8697 8.8667C45.3241 8.8667 45.705 9.00703 46.0124 9.28769C46.3198 9.55499 46.4735 9.8958 46.4735 10.3101C46.4735 10.7511 46.3198 11.1254 46.0124 11.4328C45.7184 11.7268 45.3375 11.8738 44.8697 11.8738Z" fill="#101828"/>
<path d="M52.7095 24.4836C51.8408 24.4836 50.9921 24.37 50.1635 24.1428C49.3349 23.9156 48.6733 23.6282 48.1788 23.2807L49.1411 21.3762C49.6222 21.697 50.1969 21.9576 50.8651 22.1581C51.5468 22.3452 52.215 22.4388 52.8699 22.4388C54.3667 22.4388 55.1152 22.0445 55.1152 21.256C55.1152 20.8817 54.9214 20.6211 54.5338 20.4741C54.1596 20.3271 53.5515 20.1868 52.7095 20.0531C51.8274 19.9195 51.1057 19.7658 50.5444 19.592C49.9964 19.4183 49.5153 19.1176 49.101 18.6899C48.7 18.2489 48.4996 17.6408 48.4996 16.8656C48.4996 15.8499 48.9206 15.0413 49.7625 14.4399C50.6179 13.8251 51.7673 13.5177 53.2107 13.5177C53.9458 13.5177 54.6808 13.6046 55.4159 13.7783C56.151 13.9387 56.7524 14.1592 57.2201 14.4399L56.2579 16.3444C55.3491 15.8098 54.3267 15.5425 53.1906 15.5425C52.4556 15.5425 51.8942 15.6561 51.5067 15.8833C51.1324 16.0971 50.9453 16.3845 50.9453 16.7453C50.9453 17.1463 51.1458 17.4336 51.5468 17.6073C51.9611 17.7677 52.5959 17.9214 53.4513 18.0684C54.3066 18.2021 55.0083 18.3558 55.5562 18.5295C56.1042 18.7033 56.572 18.9973 56.9595 19.4116C57.3605 19.8259 57.561 20.414 57.561 21.1758C57.561 22.1781 57.1266 22.98 56.2579 23.5815C55.3892 24.1829 54.2064 24.4836 52.7095 24.4836Z" fill="#101828"/>
<path d="M69.5469 13.638L64.5351 25.2053C64.0673 26.368 63.4993 27.1833 62.8311 27.6511C62.1628 28.1322 61.3542 28.3728 60.4053 28.3728C59.8707 28.3728 59.3428 28.2859 58.8216 28.1122C58.3004 27.9384 57.8727 27.6978 57.5386 27.3904L58.5409 25.5461C58.7815 25.7733 59.0622 25.9537 59.3829 26.0874C59.717 26.221 60.0512 26.2878 60.3853 26.2878C60.8263 26.2878 61.1872 26.1742 61.4678 25.947C61.7619 25.7198 62.0292 25.3389 62.2697 24.8043L62.4502 24.3833L57.7791 13.638H60.3853L63.7532 21.5567L67.1412 13.638H69.5469Z" fill="#101828"/>
<path d="M77.0471 13.5177C78.0896 13.5177 79.0184 13.7449 79.8337 14.1993C80.6623 14.6537 81.3105 15.2952 81.7783 16.1238C82.2461 16.9525 82.4799 17.9081 82.4799 18.9906C82.4799 20.0732 82.2461 21.0354 81.7783 21.8774C81.3105 22.706 80.6623 23.3476 79.8337 23.802C79.0184 24.2564 78.0896 24.4836 77.0471 24.4836C75.6037 24.4836 74.461 24.0024 73.619 23.0402V28.2324H71.1131V13.638H73.4987V15.0413C73.9131 14.5334 74.4209 14.1525 75.0223 13.8986C75.6371 13.6446 76.312 13.5177 77.0471 13.5177ZM76.7665 22.3385C77.6886 22.3385 78.4437 22.0311 79.0318 21.4163C79.6332 20.8016 79.9339 19.993 79.9339 18.9906C79.9339 17.9882 79.6332 17.1797 79.0318 16.5649C78.4437 15.9501 77.6886 15.6427 76.7665 15.6427C76.165 15.6427 75.6238 15.783 75.1426 16.0637C74.6615 16.331 74.2806 16.7186 73.9999 17.2264C73.7193 17.7343 73.5789 18.3224 73.5789 18.9906C73.5789 19.6589 73.7193 20.2469 73.9999 20.7548C74.2806 21.2626 74.6615 21.6569 75.1426 21.9376C75.6238 22.2049 76.165 22.3385 76.7665 22.3385Z" fill="#101828"/>
<path d="M90.9308 13.5177C92.2807 13.5177 93.3632 13.9119 94.1785 14.7005C94.9938 15.489 95.4014 16.6584 95.4014 18.2088V24.3432H92.8955V18.5295C92.8955 17.594 92.6749 16.8923 92.2339 16.4245C91.7929 15.9434 91.1647 15.7028 90.3495 15.7028C89.4273 15.7028 88.6989 15.9835 88.1643 16.5448C87.6297 17.0928 87.3624 17.888 87.3624 18.9305V24.3432H84.8565V9.46812H87.3624V14.8809C87.7767 14.4399 88.2846 14.1057 88.886 13.8785C89.5008 13.638 90.1824 13.5177 90.9308 13.5177Z" fill="#101828"/>
<path d="M108.945 13.638V24.3432H106.559V22.98C106.158 23.4612 105.657 23.8354 105.056 24.1027C104.454 24.3566 103.806 24.4836 103.111 24.4836C101.681 24.4836 100.552 24.0893 99.723 23.3008C98.9077 22.4989 98.5001 21.3161 98.5001 19.7524V13.638H101.006V19.4116C101.006 20.3739 101.22 21.0956 101.648 21.5767C102.089 22.0445 102.71 22.2784 103.512 22.2784C104.407 22.2784 105.116 22.0044 105.637 21.4564C106.172 20.8951 106.439 20.0932 106.439 19.0507V13.638H108.945Z" fill="#101828"/>
<path d="M115.534 24.4836C114.665 24.4836 113.816 24.37 112.988 24.1428C112.159 23.9156 111.497 23.6282 111.003 23.2807L111.965 21.3762C112.446 21.697 113.021 21.9576 113.689 22.1581C114.371 22.3452 115.039 22.4388 115.694 22.4388C117.191 22.4388 117.939 22.0445 117.939 21.256C117.939 20.8817 117.746 20.6211 117.358 20.4741C116.984 20.3271 116.376 20.1868 115.534 20.0531C114.652 19.9195 113.93 19.7658 113.368 19.592C112.821 19.4183 112.339 19.1176 111.925 18.6899C111.524 18.2489 111.324 17.6408 111.324 16.8656C111.324 15.8499 111.745 15.0413 112.587 14.4399C113.442 13.8251 114.591 13.5177 116.035 13.5177C116.77 13.5177 117.505 13.6046 118.24 13.7783C118.975 13.9387 119.576 14.1592 120.044 14.4399L119.082 16.3444C118.173 15.8098 117.151 15.5425 116.015 15.5425C115.28 15.5425 114.718 15.6561 114.331 15.8833C113.957 16.0971 113.769 16.3845 113.769 16.7453C113.769 17.1463 113.97 17.4336 114.371 17.6073C114.785 17.7677 115.42 17.9214 116.275 18.0684C117.131 18.2021 117.832 18.3558 118.38 18.5295C118.928 18.7033 119.396 18.9973 119.784 19.4116C120.185 19.8259 120.385 20.414 120.385 21.1758C120.385 22.1781 119.951 22.98 119.082 23.5815C118.213 24.1829 117.03 24.4836 115.534 24.4836Z" fill="#101828"/>
</svg>
