<svg width="126" height="46" viewBox="0 0 126 46" fill="none" xmlns="http://www.w3.org/2000/svg">
<path d="M51.31 31H48.61V16.54H51.31V31ZM56.3113 22C56.5179 21.7933 56.7346 21.6033 56.9613 21.43C57.1946 21.25 57.4379 21.1 57.6913 20.98C57.9513 20.8533 58.2279 20.7567 58.5213 20.69C58.8146 20.6167 59.1346 20.58 59.4813 20.58C60.0413 20.58 60.5379 20.6767 60.9713 20.87C61.4046 21.0567 61.7646 21.3233 62.0513 21.67C62.3446 22.01 62.5646 22.42 62.7113 22.9C62.8646 23.3733 62.9413 23.8967 62.9413 24.47V31H60.4713V24.47C60.4713 23.8433 60.3279 23.36 60.0413 23.02C59.7546 22.6733 59.3179 22.5 58.7313 22.5C58.3046 22.5 57.9046 22.5967 57.5313 22.79C57.1579 22.9833 56.8046 23.2467 56.4713 23.58V31H54.0013V20.74H55.5113C55.8313 20.74 56.0413 20.89 56.1413 21.19L56.3113 22ZM74.3059 20.74L70.2359 31H67.9959L63.9259 20.74H65.9659C66.1526 20.74 66.3059 20.7833 66.4259 20.87C66.5526 20.9567 66.6359 21.0667 66.6759 21.2L68.6559 26.68C68.7626 27 68.8559 27.3133 68.9359 27.62C69.0159 27.9267 69.0859 28.2333 69.1459 28.54C69.2126 28.2333 69.2859 27.9267 69.3659 27.62C69.4459 27.3133 69.5426 27 69.6559 26.68L71.6759 21.2C71.7226 21.0667 71.8059 20.9567 71.9259 20.87C72.0459 20.7833 72.1893 20.74 72.3559 20.74H74.3059ZM79.8498 20.58C80.6098 20.58 81.2998 20.7033 81.9198 20.95C82.5465 21.1967 83.0798 21.5467 83.5198 22C83.9665 22.4533 84.3098 23.0067 84.5498 23.66C84.7898 24.3133 84.9098 25.0433 84.9098 25.85C84.9098 26.6633 84.7898 27.3967 84.5498 28.05C84.3098 28.7033 83.9665 29.26 83.5198 29.72C83.0798 30.18 82.5465 30.5333 81.9198 30.78C81.2998 31.0267 80.6098 31.15 79.8498 31.15C79.0832 31.15 78.3865 31.0267 77.7598 30.78C77.1332 30.5333 76.5965 30.18 76.1498 29.72C75.7098 29.26 75.3665 28.7033 75.1198 28.05C74.8798 27.3967 74.7598 26.6633 74.7598 25.85C74.7598 25.0433 74.8798 24.3133 75.1198 23.66C75.3665 23.0067 75.7098 22.4533 76.1498 22C76.5965 21.5467 77.1332 21.1967 77.7598 20.95C78.3865 20.7033 79.0832 20.58 79.8498 20.58ZM79.8498 29.25C80.7032 29.25 81.3332 28.9633 81.7398 28.39C82.1532 27.8167 82.3598 26.9767 82.3598 25.87C82.3598 24.7633 82.1532 23.92 81.7398 23.34C81.3332 22.76 80.7032 22.47 79.8498 22.47C78.9832 22.47 78.3398 22.7633 77.9198 23.35C77.5065 23.93 77.2998 24.77 77.2998 25.87C77.2998 26.97 77.5065 27.81 77.9198 28.39C78.3398 28.9633 78.9832 29.25 79.8498 29.25ZM89.3542 20.74V31H86.8742V20.74H89.3542ZM89.6942 17.75C89.6942 17.9633 89.6509 18.1633 89.5642 18.35C89.4776 18.5367 89.3609 18.7 89.2142 18.84C89.0742 18.98 88.9076 19.0933 88.7142 19.18C88.5209 19.26 88.3142 19.3 88.0942 19.3C87.8809 19.3 87.6776 19.26 87.4842 19.18C87.2976 19.0933 87.1342 18.98 86.9942 18.84C86.8542 18.7 86.7409 18.5367 86.6542 18.35C86.5742 18.1633 86.5342 17.9633 86.5342 17.75C86.5342 17.53 86.5742 17.3233 86.6542 17.13C86.7409 16.9367 86.8542 16.77 86.9942 16.63C87.1342 16.49 87.2976 16.38 87.4842 16.3C87.6776 16.2133 87.8809 16.17 88.0942 16.17C88.3142 16.17 88.5209 16.2133 88.7142 16.3C88.9076 16.38 89.0742 16.49 89.2142 16.63C89.3609 16.77 89.4776 16.9367 89.5642 17.13C89.6509 17.3233 89.6942 17.53 89.6942 17.75ZM99.2223 22.91C99.149 23.0033 99.0757 23.0767 99.0023 23.13C98.9357 23.1833 98.8357 23.21 98.7023 23.21C98.5757 23.21 98.4523 23.1733 98.3323 23.1C98.2123 23.02 98.069 22.9333 97.9023 22.84C97.7357 22.74 97.5357 22.6533 97.3023 22.58C97.0757 22.5 96.7923 22.46 96.4523 22.46C96.019 22.46 95.639 22.54 95.3123 22.7C94.9857 22.8533 94.7123 23.0767 94.4923 23.37C94.279 23.6633 94.119 24.02 94.0123 24.44C93.9057 24.8533 93.8523 25.3233 93.8523 25.85C93.8523 26.3967 93.909 26.8833 94.0223 27.31C94.1423 27.7367 94.3123 28.0967 94.5323 28.39C94.7523 28.6767 95.019 28.8967 95.3323 29.05C95.6457 29.1967 95.999 29.27 96.3923 29.27C96.7857 29.27 97.1023 29.2233 97.3423 29.13C97.589 29.03 97.7957 28.9233 97.9623 28.81C98.129 28.69 98.2723 28.5833 98.3923 28.49C98.519 28.39 98.659 28.34 98.8123 28.34C99.0123 28.34 99.1623 28.4167 99.2623 28.57L99.9723 29.47C99.699 29.79 99.4023 30.06 99.0823 30.28C98.7623 30.4933 98.429 30.6667 98.0823 30.8C97.7423 30.9267 97.389 31.0167 97.0223 31.07C96.6623 31.1233 96.3023 31.15 95.9423 31.15C95.309 31.15 94.7123 31.0333 94.1523 30.8C93.5923 30.56 93.1023 30.2133 92.6823 29.76C92.2623 29.3067 91.929 28.7533 91.6823 28.1C91.4423 27.44 91.3223 26.69 91.3223 25.85C91.3223 25.0967 91.429 24.4 91.6423 23.76C91.8623 23.1133 92.1823 22.5567 92.6023 22.09C93.0223 21.6167 93.5423 21.2467 94.1623 20.98C94.7823 20.7133 95.4957 20.58 96.3023 20.58C97.069 20.58 97.739 20.7033 98.3123 20.95C98.8923 21.1967 99.4123 21.55 99.8723 22.01L99.2223 22.91ZM107.955 24.69C107.955 24.37 107.908 24.07 107.815 23.79C107.728 23.5033 107.595 23.2533 107.415 23.04C107.235 22.8267 107.005 22.66 106.725 22.54C106.452 22.4133 106.132 22.35 105.765 22.35C105.052 22.35 104.488 22.5533 104.075 22.96C103.668 23.3667 103.408 23.9433 103.295 24.69H107.955ZM103.245 26.18C103.285 26.7067 103.378 27.1633 103.525 27.55C103.672 27.93 103.865 28.2467 104.105 28.5C104.345 28.7467 104.628 28.9333 104.955 29.06C105.288 29.18 105.655 29.24 106.055 29.24C106.455 29.24 106.798 29.1933 107.085 29.1C107.378 29.0067 107.632 28.9033 107.845 28.79C108.065 28.6767 108.255 28.5733 108.415 28.48C108.582 28.3867 108.742 28.34 108.895 28.34C109.102 28.34 109.255 28.4167 109.355 28.57L110.065 29.47C109.792 29.79 109.485 30.06 109.145 30.28C108.805 30.4933 108.448 30.6667 108.075 30.8C107.708 30.9267 107.332 31.0167 106.945 31.07C106.565 31.1233 106.195 31.15 105.835 31.15C105.122 31.15 104.458 31.0333 103.845 30.8C103.232 30.56 102.698 30.21 102.245 29.75C101.792 29.2833 101.435 28.71 101.175 28.03C100.915 27.3433 100.785 26.55 100.785 25.65C100.785 24.95 100.898 24.2933 101.125 23.68C101.352 23.06 101.675 22.5233 102.095 22.07C102.522 21.61 103.038 21.2467 103.645 20.98C104.258 20.7133 104.948 20.58 105.715 20.58C106.362 20.58 106.958 20.6833 107.505 20.89C108.052 21.0967 108.522 21.4 108.915 21.8C109.308 22.1933 109.615 22.68 109.835 23.26C110.062 23.8333 110.175 24.49 110.175 25.23C110.175 25.6033 110.135 25.8567 110.055 25.99C109.975 26.1167 109.822 26.18 109.595 26.18H103.245ZM114.589 20.74V31H112.109V20.74H114.589ZM114.929 17.75C114.929 17.9633 114.885 18.1633 114.799 18.35C114.712 18.5367 114.595 18.7 114.449 18.84C114.309 18.98 114.142 19.0933 113.949 19.18C113.755 19.26 113.549 19.3 113.329 19.3C113.115 19.3 112.912 19.26 112.719 19.18C112.532 19.0933 112.369 18.98 112.229 18.84C112.089 18.7 111.975 18.5367 111.889 18.35C111.809 18.1633 111.769 17.9633 111.769 17.75C111.769 17.53 111.809 17.3233 111.889 17.13C111.975 16.9367 112.089 16.77 112.229 16.63C112.369 16.49 112.532 16.38 112.719 16.3C112.912 16.2133 113.115 16.17 113.329 16.17C113.549 16.17 113.755 16.2133 113.949 16.3C114.142 16.38 114.309 16.49 114.449 16.63C114.595 16.77 114.712 16.9367 114.799 17.13C114.885 17.3233 114.929 17.53 114.929 17.75ZM124.457 22.91C124.383 23.0033 124.31 23.0767 124.237 23.13C124.17 23.1833 124.07 23.21 123.937 23.21C123.81 23.21 123.687 23.1733 123.567 23.1C123.447 23.02 123.303 22.9333 123.137 22.84C122.97 22.74 122.77 22.6533 122.537 22.58C122.31 22.5 122.027 22.46 121.687 22.46C121.253 22.46 120.873 22.54 120.547 22.7C120.22 22.8533 119.947 23.0767 119.727 23.37C119.513 23.6633 119.353 24.02 119.247 24.44C119.14 24.8533 119.087 25.3233 119.087 25.85C119.087 26.3967 119.143 26.8833 119.257 27.31C119.377 27.7367 119.547 28.0967 119.767 28.39C119.987 28.6767 120.253 28.8967 120.567 29.05C120.88 29.1967 121.233 29.27 121.627 29.27C122.02 29.27 122.337 29.2233 122.577 29.13C122.823 29.03 123.03 28.9233 123.197 28.81C123.363 28.69 123.507 28.5833 123.627 28.49C123.753 28.39 123.893 28.34 124.047 28.34C124.247 28.34 124.397 28.4167 124.497 28.57L125.207 29.47C124.933 29.79 124.637 30.06 124.317 30.28C123.997 30.4933 123.663 30.6667 123.317 30.8C122.977 30.9267 122.623 31.0167 122.257 31.07C121.897 31.1233 121.537 31.15 121.177 31.15C120.543 31.15 119.947 31.0333 119.387 30.8C118.827 30.56 118.337 30.2133 117.917 29.76C117.497 29.3067 117.163 28.7533 116.917 28.1C116.677 27.44 116.557 26.69 116.557 25.85C116.557 25.0967 116.663 24.4 116.877 23.76C117.097 23.1133 117.417 22.5567 117.837 22.09C118.257 21.6167 118.777 21.2467 119.397 20.98C120.017 20.7133 120.73 20.58 121.537 20.58C122.303 20.58 122.973 20.7033 123.547 20.95C124.127 21.1967 124.647 21.55 125.107 22.01L124.457 22.91Z" fill="#0075FF"/>
<path d="M31.8333 21.35L25.8125 13.94C25.5101 13.6377 25.1461 13.3983 24.7433 13.2366C24.3405 13.0749 23.9074 12.9943 23.4708 12.9999C23.0342 13.0056 22.6035 13.0972 22.2054 13.2693C21.8072 13.4413 21.4501 13.69 21.1563 14L15.1667 21.35C14.835 21.8416 14.6578 22.4144 14.6562 23C14.6736 23.5614 14.8501 24.1077 15.1667 24.58L15.2292 24.65L21.2083 32.06C21.5027 32.3592 21.8581 32.5971 22.2523 32.7588C22.6466 32.9205 23.0713 33.0026 23.5 33C23.9433 32.9996 24.3816 32.9105 24.7869 32.7383C25.1923 32.5661 25.5558 32.3147 25.8542 32L31.8333 24.65C32.1601 24.1543 32.3284 23.5775 32.3173 22.991C32.3062 22.4045 32.1162 21.8339 31.7708 21.35H31.8333ZM30.1979 23.49L24.2917 30.71C24.0926 30.886 23.8356 30.9894 23.5653 31.0022C23.295 31.015 23.0286 30.9363 22.8125 30.78L16.8854 23.47C16.7969 23.3274 16.7468 23.1659 16.7396 23C16.7411 22.8447 16.7766 22.6914 16.8438 22.55L22.75 15.33C22.9491 15.154 23.2061 15.0506 23.4764 15.0378C23.7467 15.025 24.0131 15.1037 24.2292 15.26L30.0938 22.54C30.2021 22.701 30.2599 22.8884 30.2604 23.08C30.2533 23.2218 30.218 23.361 30.1562 23.49H30.1979Z" fill="#75B4FF"/>
<path d="M39.1667 19.8375L27.8475 5.635C27.2789 5.05559 26.5948 4.59668 25.8375 4.28674C25.0802 3.9768 24.2659 3.82243 23.4452 3.83322C22.6244 3.844 21.8146 4.0197 21.0661 4.34942C20.3176 4.67915 19.6463 5.15586 19.0938 5.75L7.83336 19.8375C7.20991 20.7796 6.87679 21.8775 6.87378 23C6.90649 24.076 7.23824 25.123 7.83336 26.0283L7.95086 26.1625L19.1917 40.365C19.7451 40.9385 20.4132 41.3944 21.1544 41.7043C21.8956 42.0143 22.694 42.1717 23.5 42.1667C24.3334 42.1659 25.1574 41.9951 25.9194 41.6651C26.6815 41.3351 27.3649 40.8531 27.9259 40.25L39.1667 26.1625C39.7811 25.2124 40.0974 24.1069 40.0765 22.9828C40.0557 21.8586 39.6985 20.7651 39.0492 19.8375H39.1667ZM36.0921 23.9392L24.9884 37.7775C24.6141 38.1148 24.1309 38.313 23.6228 38.3375C23.1146 38.362 22.6138 38.2113 22.2075 37.9117L11.0646 23.9008C10.8982 23.6275 10.804 23.3179 10.7904 23C10.7933 22.7023 10.8601 22.4084 10.9863 22.1375L22.09 8.29917C22.4642 7.96185 22.9475 7.76368 23.4556 7.73916C23.9637 7.71465 24.4646 7.86534 24.8709 8.165L35.8963 22.1183C36.0999 22.4268 36.2086 22.7861 36.2096 23.1533C36.1963 23.4251 36.1298 23.6919 36.0138 23.9392H36.0921Z" fill="#0075FF"/>
</svg>
